<svg xmlns="http://www.w3.org/2000/svg" width="60.225" height="73.763" viewBox="0 0 60.225 73.763">
    <path id="prefix__clipboard2" d="M51.622 9.22h-6.453V4.61h-5.781a10.154 10.154 0 0 0-3.865-3.35 12.243 12.243 0 0 0-10.822 0 10.154 10.154 0 0 0-3.865 3.35h-5.78v4.61H8.6a8.021 8.021 0 0 0-6.083 2.7A9.214 9.214 0 0 0 0 18.441v46.1a9.214 9.214 0 0 0 2.521 6.519 8.021 8.021 0 0 0 6.083 2.7h43.018a8.021 8.021 0 0 0 6.083-2.7 9.214 9.214 0 0 0 2.521-6.519v-46.1a9.214 9.214 0 0 0-2.526-6.519 8.021 8.021 0 0 0-6.078-2.702zm-32.264 0h4.772a4.028 4.028 0 0 1 1.748-3.242 6.658 6.658 0 0 1 4.235-1.368 6.658 6.658 0 0 1 4.235 1.369 4.028 4.028 0 0 1 1.747 3.241h4.772v9.22H19.358zm25.811 50.713H15.056a2 2 0 0 1-1.512-.684 2.376 2.376 0 0 1 0-3.242 2 2 0 0 1 1.512-.684h30.113a2 2 0 0 1 1.512.684 2.376 2.376 0 0 1 0 3.242 2 2 0 0 1-1.512.684zm0-11.525H15.056a2 2 0 0 1-1.512-.684 2.376 2.376 0 0 1 0-3.242 2 2 0 0 1 1.512-.684h30.113a2 2 0 0 1 1.512.684 2.376 2.376 0 0 1 0 3.242 2 2 0 0 1-1.512.683zm0-11.525H15.056a2 2 0 0 1-1.512-.684 2.376 2.376 0 0 1 0-3.242 2 2 0 0 1 1.512-.684h30.113a2 2 0 0 1 1.512.684 2.376 2.376 0 0 1 0 3.242 2 2 0 0 1-1.512.683z" style="fill:#1c0303"/>
</svg>
