<svg xmlns="http://www.w3.org/2000/svg" width="85.694" height="78.556" viewBox="0 0 85.694 78.556">
    <path id="prefix__iconmonstr-construction-7" d="M60.91 61.436L46.646 46.018c-3.81-3.813-.143-8.077 9.069-9a27.559 27.559 0 0 0-10.78-2.51 13.883 13.883 0 0 0-8.512 2.6c-4.37 3.288-3.474 5.92-5.445 7.891a3.129 3.129 0 0 1-3.978.265l-3.124 3.124 8.834 8.83 3.121-3.124s-1.289-2.221.132-3.638a3.136 3.136 0 0 1 4.588.186c.7.693 14.811 15.543 14.811 15.543 3.849 3.849 8.438-1.864 5.548-4.749zM85.694 43.85H74.982v35.706h-64.27V43.85H0L42.847 1zM71.412 24.484L60.7 13.772v-9.2h10.712z" transform="translate(0 -1)" style="fill:#1c0303;fill-rule:evenodd"/>
</svg>
