<svg xmlns="http://www.w3.org/2000/svg" width="70.763" height="70.763" viewBox="0 0 70.763 70.763">
    <path id="prefix__maximize4" d="M61.918 0H8.845a8.522 8.522 0 0 0-6.254 2.591A8.522 8.522 0 0 0 0 8.845v53.073a8.522 8.522 0 0 0 2.591 6.254 8.522 8.522 0 0 0 6.254 2.591h53.073a8.848 8.848 0 0 0 8.845-8.845V8.845a8.522 8.522 0 0 0-2.591-6.254A8.522 8.522 0 0 0 61.918 0zM26.536 53.072a2.211 2.211 0 0 1 0 4.423H15.549a2.312 2.312 0 0 1-.9-.173 1.715 1.715 0 0 1-.691-.518 1.775 1.775 0 0 1-.518-.656 2.066 2.066 0 0 1-.173-.864V44.227a2.2 2.2 0 0 1 3.766-1.555 2.125 2.125 0 0 1 .656 1.555l-.069 5.667 10.575-10.573 3.11 3.11-10.574 10.641zm1.659-21.63L17.622 20.87l.069 5.667a2.2 2.2 0 0 1-3.766 1.555 2.125 2.125 0 0 1-.656-1.555V15.479a2.066 2.066 0 0 1 .173-.864 1.775 1.775 0 0 1 .518-.656 1.715 1.715 0 0 1 .691-.518 2.312 2.312 0 0 1 .9-.173h10.985a2.2 2.2 0 0 1 1.555 3.766 2.125 2.125 0 0 1-1.555.656h-5.8L31.3 28.333zM57.5 55.284a2.066 2.066 0 0 1-.173.864 1.775 1.775 0 0 1-.518.656 1.715 1.715 0 0 1-.691.518 2.312 2.312 0 0 1-.9.173H44.227a2.211 2.211 0 0 1 0-4.423h5.8L39.459 42.43l3.11-3.11 10.572 10.574-.069-5.667a2.211 2.211 0 0 1 4.423 0zm0-28.748a2.211 2.211 0 0 1-4.423 0l.069-5.667-10.578 10.574-3.11-3.11 10.574-10.642h-5.8a2.2 2.2 0 0 1-1.555-3.766 2.125 2.125 0 0 1 1.555-.656h10.983a2.312 2.312 0 0 1 .9.173 1.715 1.715 0 0 1 .691.518 1.775 1.775 0 0 1 .518.656 2.066 2.066 0 0 1 .173.864zm13.268 39.8" style="fill:#1c0303"/>
</svg>
