<svg xmlns="http://www.w3.org/2000/svg" width="57.806" height="77.702" viewBox="0 0 57.806 77.702">
    <path id="prefix__calculator_alt" d="M4.817 77.7h48.172a4.611 4.611 0 0 0 3.387-1.442 4.686 4.686 0 0 0 1.43-3.415V4.856a4.686 4.686 0 0 0-1.43-3.415A4.611 4.611 0 0 0 52.989 0H4.817A4.611 4.611 0 0 0 1.43 1.442 4.686 4.686 0 0 0 0 4.856v67.989a4.686 4.686 0 0 0 1.43 3.415 4.611 4.611 0 0 0 3.387 1.44zm41.849-25.646a4.486 4.486 0 0 1-3.312 1.366 4.611 4.611 0 0 1-3.387-1.442 4.792 4.792 0 0 1 0-6.829 4.7 4.7 0 0 1 6.774 0 4.686 4.686 0 0 1 1.43 3.415 4.817 4.817 0 0 1-1.505 3.49zm0 7.74a4.338 4.338 0 0 1 1.505 3.339 4.686 4.686 0 0 1-1.43 3.415 4.7 4.7 0 0 1-6.774 0 4.792 4.792 0 0 1 0-6.829 4.611 4.611 0 0 1 3.387-1.442 4.273 4.273 0 0 1 3.312 1.517zm0-22.309a4.486 4.486 0 0 1-3.312 1.366 4.611 4.611 0 0 1-3.387-1.442 4.792 4.792 0 0 1 0-6.829 4.7 4.7 0 0 1 6.774 0 4.686 4.686 0 0 1 1.43 3.415 4.817 4.817 0 0 1-1.505 3.49zM9.634 19.425V9.713h38.537v9.713zm22.58 32.629A4.486 4.486 0 0 1 28.9 53.42a4.611 4.611 0 0 1-3.387-1.442 4.792 4.792 0 0 1 0-6.829 4.7 4.7 0 0 1 6.774 0 4.686 4.686 0 0 1 1.43 3.415 4.817 4.817 0 0 1-1.502 3.49zm0 7.74a4.338 4.338 0 0 1 1.505 3.339 4.686 4.686 0 0 1-1.43 3.415 4.7 4.7 0 0 1-6.774 0 4.792 4.792 0 0 1 0-6.829 4.611 4.611 0 0 1 3.385-1.443 4.273 4.273 0 0 1 3.315 1.518zm0-22.309a4.486 4.486 0 0 1-3.314 1.366 4.611 4.611 0 0 1-3.387-1.442 4.792 4.792 0 0 1 0-6.829 4.7 4.7 0 0 1 6.774 0 4.686 4.686 0 0 1 1.43 3.415 4.817 4.817 0 0 1-1.502 3.49zm-21.225-6.829a4.741 4.741 0 0 1 3.462-1.518 4.611 4.611 0 0 1 3.387 1.442 4.792 4.792 0 0 1 0 6.829 4.7 4.7 0 0 1-6.774 0 4.686 4.686 0 0 1-1.43-3.415 4.56 4.56 0 0 1 1.355-3.338zm0 14.569a4.741 4.741 0 0 1 3.462-1.518 4.611 4.611 0 0 1 3.387 1.442 4.792 4.792 0 0 1 0 6.829 4.7 4.7 0 0 1-6.774 0 4.686 4.686 0 0 1-1.43-3.415 4.56 4.56 0 0 1 1.355-3.338zm0 14.569a4.741 4.741 0 0 1 3.462-1.518 4.611 4.611 0 0 1 3.387 1.442 4.792 4.792 0 0 1 0 6.829 4.7 4.7 0 0 1-6.774 0 4.686 4.686 0 0 1-1.43-3.415 4.56 4.56 0 0 1 1.355-3.338z" data-name="calculator alt" style="fill:#1c0303"/>
</svg>
