<svg xmlns="http://www.w3.org/2000/svg" width="60.657" height="64.053" viewBox="0 0 60.657 64.053">
    <path id="prefix__user" d="M30.328 0a16.226 16.226 0 0 0-6.555 1.343 17.11 17.11 0 0 0-9 9 17.1 17.1 0 0 0-1.267 6.557 17.1 17.1 0 0 0 1.264 6.555 17.552 17.552 0 0 0 3.63 5.294 17.277 17.277 0 0 0 5.371 3.633 16.674 16.674 0 0 0 13.111 0 17.277 17.277 0 0 0 5.371-3.633 17.552 17.552 0 0 0 3.633-5.292 17.1 17.1 0 0 0 1.265-6.557 17.1 17.1 0 0 0-1.264-6.555 17.11 17.11 0 0 0-9-9A16.226 16.226 0 0 0 30.328 0zm0 27.011a9.74 9.74 0 0 1-7.148-2.962 9.74 9.74 0 0 1-2.961-7.149 9.74 9.74 0 0 1 2.962-7.148 9.74 9.74 0 0 1 7.148-2.962 9.74 9.74 0 0 1 7.148 2.962 9.74 9.74 0 0 1 2.961 7.148 9.74 9.74 0 0 1-2.962 7.148 9.74 9.74 0 0 1-7.148 2.963zm30.329 37.042v-3.4a22.661 22.661 0 0 0-1.9-9.162 23.427 23.427 0 0 0-5.015-7.464 24.281 24.281 0 0 0-7.542-5.09 23.133 23.133 0 0 0-9.162-1.817H23.615a23.133 23.133 0 0 0-9.162 1.817 24.281 24.281 0 0 0-7.543 5.094 23.427 23.427 0 0 0-5.01 7.464A22.661 22.661 0 0 0 0 60.657v3.4h6.713v-3.4A16.226 16.226 0 0 1 8.056 54.1a17.552 17.552 0 0 1 3.633-5.292 17.277 17.277 0 0 1 5.371-3.633 16.226 16.226 0 0 1 6.555-1.343h13.427a16.226 16.226 0 0 1 6.558 1.345 17.277 17.277 0 0 1 5.371 3.633A17.552 17.552 0 0 1 52.6 54.1a16.226 16.226 0 0 1 1.343 6.555v3.4z" style="fill:#fff"/>
</svg>
