<svg xmlns="http://www.w3.org/2000/svg" width="45.183" height="44.124" viewBox="0 0 45.183 44.124">
    <path id="prefix__phone_call" d="M36.56 19.364h4.34a19.252 19.252 0 0 0-1.516-7.664A18.475 18.475 0 0 0 29.2 1.513 19.617 19.617 0 0 0 21.482 0v4.337a16.147 16.147 0 0 1 6.051 1.109 13.905 13.905 0 0 1 7.917 7.917 15.761 15.761 0 0 1 1.11 6.001zm-15.027-6.455q3.379 0 4.917 1.538t1.538 4.917h4.286q0-5.194-2.774-7.968t-7.967-2.773zm7.362 11.75a2.193 2.193 0 0 0-3.026.05L20.726 30a12.748 12.748 0 0 1-2.622-.882 12.6 12.6 0 0 1-3.681-2.647 12.6 12.6 0 0 1-2.647-3.681 12.748 12.748 0 0 1-.882-2.622l5.244-5.144a2.029 2.029 0 0 0 .681-1.488A2.1 2.1 0 0 0 16.238 12L8.321 3.278a2.12 2.12 0 0 0-1.488-.706 2.109 2.109 0 0 0-1.538.5L.656 7.11a1.6 1.6 0 0 0-.456.605 2.788 2.788 0 0 0-.2.756q0 .2.05 2.471a27.453 27.453 0 0 0 .857 5.623 38.42 38.42 0 0 0 2.723 7.388 28.956 28.956 0 0 0 5.6 7.715 28.5 28.5 0 0 0 6.757 5.043 35.989 35.989 0 0 0 6.581 2.8 27.362 27.362 0 0 0 5.522 1.135q2.421.252 3.53.252h.807a2.788 2.788 0 0 0 .756-.2 1.6 1.6 0 0 0 .605-.454l4.033-4.644a2.245 2.245 0 0 0 .5-1.563 2.1 2.1 0 0 0-.706-1.462zm16.288 19.465" data-name="phone call" style="fill:#0b1d3e"/>
</svg>
