<svg xmlns="http://www.w3.org/2000/svg" width="52.483" height="62.782" viewBox="0 0 52.483 62.782">
    <path id="prefix__パス_2" d="M181.391 73.438h-48.353a2.065 2.065 0 0 0-2.065 2.065v60.716h20.046v-14.091h12.392v14.092h20.045V75.5a2.065 2.065 0 0 0-2.065-2.062zm-8.13 9.289v6.038H165.7v-6.038h7.556zm0 12.54v6.15H165.7v-6.15zm0 12.651v6.159H165.7v-6.159zm-12.593-25.191v6.038h-7.556v-6.038h7.556zm-7.556 18.69v-6.15h7.556v6.15zm0 12.66v-6.159h7.556v6.159zm-5.037-31.35v6.038h-7.556v-6.038h7.556zm0 12.54v6.15h-7.556v-6.15zm0 12.651v6.159h-7.556v-6.159z" data-name="パス 2" transform="translate(-130.973 -73.438)" style="fill:#fff"/>
</svg>
