<svg xmlns="http://www.w3.org/2000/svg" width="71.613" height="71.613" viewBox="0 0 71.613 71.613">
    <path id="prefix__iconmonstr-pen-7" d="M47.181 14.379a2.539 2.539 0 0 1 .084-3.6L57.615.737a2.59 2.59 0 0 1 1.8-.737 2.493 2.493 0 0 1 1.8.767L47.181 14.379zM30.158 39.957a1.071 1.071 0 0 0-.319.761 1.057 1.057 0 0 0 1.793.758l1.74-1.692-1.472-1.519zm14.692-19.55l-5.95 5.767a24.584 24.584 0 0 0-6.338 10.3l2.629 2.712a24.565 24.565 0 0 0 10.485-6.015l5.95-5.771-6.776-6.993zM62.2 2.629L46.877 17.494l7.716 7.97L69.924 10.6A5.55 5.55 0 0 0 62.2 2.629zM26.855 38.79H14.919v2.984h11.936zm26.855-4.028v5.648c0 12.255-17.9 7.331-17.9 7.331s4.53 17.9-7.871 17.9H5.968V5.968h37.683L49.8 0H0v71.613h30.4c9.438 0 29.275-21.552 29.275-28.687V28.941z" style="fill:#1c0303"/>
</svg>
