<svg xmlns="http://www.w3.org/2000/svg" width="123.047" height="26.582" viewBox="0 0 123.047 26.582">
    <path id="prefix__パス_35" d="M23.145-23.906a20.014 20.014 0 0 1 .234 3.086q0 .313-.02.84a2.158 2.158 0 0 1-.41.059 2 2 0 0 1-.332-.039 6.853 6.853 0 0 0-2.676-3.516 8.126 8.126 0 0 0-4.59-1.23 7.79 7.79 0 0 0-2.441.332 10.193 10.193 0 0 0-3.086 1.67 10 10 0 0 0-2.246 2.539 12.688 12.688 0 0 0-1.455 3.574 17.23 17.23 0 0 0-.537 4.291 16.372 16.372 0 0 0 1.27 6.9 8.01 8.01 0 0 0 3.477 3.887 9.471 9.471 0 0 0 4.452 1.161l.918-.02a14.6 14.6 0 0 0 2.129-.371 9.945 9.945 0 0 0 2.354-.967A7.767 7.767 0 0 0 22-3.281a9.862 9.862 0 0 0 1.514-2.363l.234-.078a.665.665 0 0 1 .293.117Q24.023-5.137 24-5q-.82 3.3-1.191 4.512-.313.078-.781.234a19.428 19.428 0 0 1-6.113.781A18.815 18.815 0 0 1 11.3.107 19.083 19.083 0 0 1 7.959-1.2a10.864 10.864 0 0 1-3.174-2.355 11.032 11.032 0 0 1-2.207-3.7 13.754 13.754 0 0 1-.84-4.873 13.012 13.012 0 0 1 .662-4.366 15.154 15.154 0 0 1 2.051-3.779 12.974 12.974 0 0 1 3.271-3.184 12.363 12.363 0 0 1 4.189-1.8 22.946 22.946 0 0 1 4.59-.352 14.092 14.092 0 0 1 4.082.576 7.785 7.785 0 0 1 2.562 1.127zm3.281-.293v-.43q.547-.176 1.211-.371.977-.313 2.891-.957h.918q.02.938.02 1.074 0 16.035-.1 19.121-.059 1.816-.059 1.934a8.128 8.128 0 0 0 .176 2.441q.234.352 1.436.488a4.963 4.963 0 0 1 1.416.273.28.28 0 0 1 .156.273.421.421 0 0 1-.088.3.455.455 0 0 1-.322.088q-.137 0-2.051-.059L29.473-.1l-3.282.139a.632.632 0 0 1-.469-.117.336.336 0 0 1-.117-.273.32.32 0 0 1 .127-.283 7.354 7.354 0 0 1 1.406-.3A5.108 5.108 0 0 0 28.6-1.3a.984.984 0 0 0 .244-.654q.078-.7.078-3.965l-.02-4.492.059-4.648-.02-4.648.059-2.285a1.743 1.743 0 0 0-.215-.986 2.147 2.147 0 0 0-.918-.6Q26.816-24 26.426-24.2zM50.449-2.656a1.034 1.034 0 0 1 .117.371A2.518 2.518 0 0 1 50.1-1.25 4.2 4.2 0 0 1 48.75.176a2.423 2.423 0 0 1-1.289.293 2.566 2.566 0 0 1-2.109-.859 3.659 3.659 0 0 1-.605-1.816L42.559-.684a8.99 8.99 0 0 1-1.759.84 9.418 9.418 0 0 1-2.343.254 2.085 2.085 0 0 1-1.572-.6 2.114 2.114 0 0 1-.576-1.533 5.346 5.346 0 0 1 1.65-3.223 12.1 12.1 0 0 1 4.482-3.066q1.992-.84 2.441-1.074.039-.645.039-1.406a5.749 5.749 0 0 0-.693-3.359 2.377 2.377 0 0 0-1.982-.879 3.707 3.707 0 0 0-2.52 1.055 4.67 4.67 0 0 0-1.094 2.5 4.139 4.139 0 0 1-.449 1.094 2.734 2.734 0 0 1-1.348.547 1.3 1.3 0 0 1-.781-.254.385.385 0 0 1-.2-.312 6.736 6.736 0 0 1 1.084-2.295 7.172 7.172 0 0 1 2.734-2.676 6.282 6.282 0 0 1 2.881-.889 7.7 7.7 0 0 1 2.5.3 3.376 3.376 0 0 1 1.447 1.07 3.392 3.392 0 0 1 .762 1.66 30.527 30.527 0 0 1 .078 3.066l-.059 3.105.02 2.266q0 .449-.02.762-.02.566-.02.84a1.441 1.441 0 0 0 .371 1.035 1.173 1.173 0 0 0 .879.391 1.532 1.532 0 0 0 1.27-.742l.234-.312a1.82 1.82 0 0 1 .434-.137zm-5.742-.566q.137-2.48.137-3.5 0-.527-.059-1.426a13.4 13.4 0 0 0-2.773 1.426 8.229 8.229 0 0 0-2.324 2.207 3.013 3.013 0 0 0-.625 1.7 1.706 1.706 0 0 0 .518 1.27 1.779 1.779 0 0 0 1.3.508 3.414 3.414 0 0 0 1.465-.43 9.785 9.785 0 0 0 2.361-1.756zm8.945-1.738a14.7 14.7 0 0 0 1.094 2.4 5.542 5.542 0 0 0 1.777 1.73 4.318 4.318 0 0 0 2.246.615 3.36 3.36 0 0 0 2.207-.957 2.225 2.225 0 0 0 .781-1.68A3.534 3.534 0 0 0 60.84-5.2a8.839 8.839 0 0 0-3.486-2.021 8.149 8.149 0 0 1-3.447-2.061 3.881 3.881 0 0 1-.879-2.5 3.94 3.94 0 0 1 .723-2.344 4.427 4.427 0 0 1 1.992-1.533 6.251 6.251 0 0 1 2.344-.518 13.1 13.1 0 0 1 2.49.215 6.359 6.359 0 0 1 1.9.664q.156 1 .254 2.93l.039.625q-.254.02-.43.02h-.27a5.607 5.607 0 0 0-1.787-2.568 3.846 3.846 0 0 0-2.373-.947 2.581 2.581 0 0 0-1.895.713 2.5 2.5 0 0 0-.723 1.865 2.333 2.333 0 0 0 .586 1.563 7.842 7.842 0 0 0 2.744 1.563A14.4 14.4 0 0 1 61.768-7.9a4.576 4.576 0 0 1 1.455 1.826 5.128 5.128 0 0 1 .469 2.051A4.091 4.091 0 0 1 62.8-1.5 4.761 4.761 0 0 1 60.576.146a7.206 7.206 0 0 1-2.393.479 11.239 11.239 0 0 1-4.57-.918.767.767 0 0 1-.213-.586q0-.176-.039-.566-.312-2.637-.312-3.125a.389.389 0 0 1 .1-.312.988.988 0 0 1 .503-.079zm14.59 0a14.7 14.7 0 0 0 1.094 2.4 5.542 5.542 0 0 0 1.777 1.73 4.318 4.318 0 0 0 2.246.615 3.36 3.36 0 0 0 2.207-.957 2.225 2.225 0 0 0 .781-1.68A3.534 3.534 0 0 0 75.43-5.2a8.839 8.839 0 0 0-3.486-2.021A8.149 8.149 0 0 1 68.5-9.277a3.881 3.881 0 0 1-.879-2.5 3.94 3.94 0 0 1 .723-2.344 4.427 4.427 0 0 1 1.992-1.533 6.251 6.251 0 0 1 2.344-.518 13.1 13.1 0 0 1 2.49.215 6.359 6.359 0 0 1 1.9.664q.156 1 .254 2.93l.039.625q-.254.02-.43.02h-.273a5.607 5.607 0 0 0-1.787-2.568 3.846 3.846 0 0 0-2.373-.947 2.581 2.581 0 0 0-1.895.713 2.5 2.5 0 0 0-.723 1.865 2.333 2.333 0 0 0 .586 1.563 7.842 7.842 0 0 0 2.744 1.563A14.4 14.4 0 0 1 76.357-7.9a4.576 4.576 0 0 1 1.455 1.826 5.128 5.128 0 0 1 .469 2.051 4.091 4.091 0 0 1-.889 2.52A4.761 4.761 0 0 1 75.166.146a7.206 7.206 0 0 1-2.393.479A11.239 11.239 0 0 1 68.2-.293a.767.767 0 0 1-.215-.586q0-.176-.039-.566-.313-2.637-.312-3.125a.389.389 0 0 1 .1-.312.988.988 0 0 1 .508-.079zM82.773-24a1.478 1.478 0 0 1 .5-1.113 1.69 1.69 0 0 1 1.2-.469 1.773 1.773 0 0 1 1.27.527 1.563 1.563 0 0 1 .547 1.133 1.593 1.593 0 0 1-.547 1.143 1.757 1.757 0 0 1-1.27.537 1.644 1.644 0 0 1-1.211-.488 1.717 1.717 0 0 1-.489-1.27zm-1.64 10.113l.02-.566q1.27-.371 1.367-.43a6.4 6.4 0 0 0 1.475-.957 6.635 6.635 0 0 0 1.3-1.445 2.391 2.391 0 0 1 .371-.039l.234.02q.078.938.078 1.367 0 .1-.039.879v1.035l.02 5.625-.059 5.957a1.46 1.46 0 0 0 .234 1.006 3.812 3.812 0 0 0 1.5.635 11.874 11.874 0 0 1 1.172.371.615.615 0 0 1 .059.234.64.64 0 0 1-.1.293q-.762-.02-1.953-.1-1.612-.135-2.144-.135-.254 0-3.125.1a10.476 10.476 0 0 0-1.133.1A1.354 1.354 0 0 1 80.1 0a.43.43 0 0 1-.1-.234q0-.273.371-.43.078-.039 1.992-.449a1.271 1.271 0 0 0 .82-.391 2.076 2.076 0 0 0 .332-1.309q.039-1.5.039-8.242a6.912 6.912 0 0 0-.117-1.68 1.481 1.481 0 0 0-.518-.537 5.676 5.676 0 0 0-1.786-.615zm23.633 10.313l.02 1.27a9.4 9.4 0 0 1-3.008 2.266 8.727 8.727 0 0 1-3.5.645 7.083 7.083 0 0 1-3.942-1.144 7.374 7.374 0 0 1-2.705-3.233 9.888 9.888 0 0 1-.947-4.1 8.158 8.158 0 0 1 1.143-4.17 7.355 7.355 0 0 1 3.027-2.93 10.325 10.325 0 0 1 4.736-.967 7.6 7.6 0 0 1 4.16.938 1.644 1.644 0 0 1 .8 1.406 1.4 1.4 0 0 1-.41 1.035 1.428 1.428 0 0 1-1.055.41 3.22 3.22 0 0 1-2.148-1.211 4.956 4.956 0 0 0-1.309-1.025 2.968 2.968 0 0 0-1.309-.283 3.569 3.569 0 0 0-2.891 1.426 7.979 7.979 0 0 0-1.6 5.1 7.382 7.382 0 0 0 1.641 5.039A4.955 4.955 0 0 0 99.3-1.23a6.912 6.912 0 0 0 2.705-.5 11.3 11.3 0 0 0 2.761-1.844zm2.48-4.277a8.255 8.255 0 0 1 .557-2.842 7.9 7.9 0 0 1 1.689-2.715 7.85 7.85 0 0 1 2.4-1.787 10.306 10.306 0 0 1 4.336-.82 8.2 8.2 0 0 1 6.1 2.5 8.284 8.284 0 0 1 2.457 6.015 7.525 7.525 0 0 1-2.568 5.576 9.029 9.029 0 0 1-6.494 2.451 8.839 8.839 0 0 1-4.57-1.27 8.215 8.215 0 0 1-2.753-2.831 8 8 0 0 1-1.154-4.278zm8.633 7.617a5.615 5.615 0 0 0 2.861-.8 5.548 5.548 0 0 0 2.2-2.568 9.625 9.625 0 0 0 .82-4.092 11.965 11.965 0 0 0-.635-3.535 5.882 5.882 0 0 0-1.953-3.018 4.958 4.958 0 0 0-3.1-1.006 6.341 6.341 0 0 0-2.627.605 5.024 5.024 0 0 0-2.266 2.324 10.444 10.444 0 0 0-.928 4.883 7.908 7.908 0 0 0 1.611 5.381 5.135 5.135 0 0 0 4.017 1.826z" data-name="パス 35" transform="translate(-1.738 25.957)" style="fill:#1c0303"/>
</svg>
